#!OML:ASF H:\Terrain\Patient Classification 1\Terrain2\Thursday\justin.ASF
:FULLY-SPECIFIED
:DEGREES
4001
root -0.999361 23.7232 -1.42077 884.454 -260.374 -198.287
lowerback 6.11967 -0.307912 1.611
upperback 2.25715 -0.210259 2.55802
thorax -1.10339 -0.0796422 1.74019
lowerneck -11.7549 -2.22382 -9.18482
upperneck 41.8266 0.423247 2.65207
head 17.3815 -0.299972 3.14814
rclavicle 5.06901e-015 -4.37326e-015
rhumerus -31.174 -3.89413 -82.1277
rradius 35.6174
rwrist -11.2976
rhand -23.1167 13.6138
rfingers 7.12502
rthumb 3.33039 -16.3399
lclavicle 5.06901e-015 -4.37326e-015
lhumerus -32.4526 9.02172 83.6071
lradius 27.5871
lwrist 2.54383
lhand -17.6536 22.2402
lfingers 7.12502
lthumb 8.60464 52.0449
rfemur -15.0222 -1.91636 23.0586
rtibia 37.0643
rfoot -20.8082 4.4868
rtoes 11.7817
lfemur -12.3307 2.02822 -18.7784
ltibia 29.0113
lfoot -12.1244 -18.3659
ltoes 28.9877
4002
root -0.969776 23.7206 -1.39803 881.689 -260.354 -200.983
lowerback 6.06511 -0.346062 2.10964
upperback 2.34391 -0.228783 2.69276
thorax -0.984746 -0.0845061 1.59984
lowerneck -11.7993 -2.15157 -9.38734
upperneck 41.9066 0.589897 2.72867
head 17.4271 -0.253273 3.25367
rclavicle -8.64713e-015 1.19271e-015
rhumerus -31.032 -3.84771 -82.123
rradius 35.3421
rwrist -11.27
rhand -22.9136 13.4759
rfingers 7.12502
rthumb 3.52658 -16.4747
lclavicle -8.64713e-015 1.19271e-015
lhumerus -32.4278 9.71535 83.4684
lradius 27.5874
lwrist 2.0989
lhand -17.5229 22.2177
lfingers 7.12502
lthumb 8.73073 52.0171
rfemur -14.5507 -2.33362 23.6966
rtibia 36.6108
rfoot -21.0184 4.35962
rtoes 10.7757
lfemur -12.2018 2.08402 -18.2004
ltibia 29.2634
lfoot -12.6538 -18.3697
ltoes 26.9921
4003
root -0.938635 23.7145 -1.36923 879.281 -260.344 -203.327
lowerback 5.9756 -0.20806 2.58871
upperback 2.38964 -0.020178 2.71403
thorax -0.890469 0.0235849 1.33855
lowerneck -11.6678 -2.21956 -9.48056
upperneck 41.9372 0.426201 2.96109
head 17.423 -0.297005 3.35203
rclavicle -1.61016e-014 3.22031e-014
rhumerus -31.202 -4.27293 -82.0846
rradius 35.2156
rwrist -11.0888
rhand -22.8032 13.6314
rfingers 7.12502
rthumb 3.63315 -16.3174
lclavicle -1.61016e-014 3.22031e-014
lhumerus -32.296 9.51072 83.5446
lradius 27.5447
lwrist 2.14366
lhand -17.8668 22.2704
lfingers 7.12502
lthumb 8.39892 52.0834
rfemur -14.0708 -2.67205 24.3077
rtibia 36.1117
rfoot -21.1222 3.94717
rtoes 9.62419
lfemur -12.1329 1.87257 -17.683
ltibia 29.6326
lfoot -13.1025 -18.2132
ltoes 25.561
4004
root -0.905802 23.7004 -1.34211 876.318 -260.299 -206.256
lowerback 5.83923 -0.0874644 3.18003
upperback 2.39984 0.169872 2.76897
thorax -0.802951 0.12332 1.05137
lowerneck -11.4171 -2.30925 -9.55877
upperneck 41.9548 0.258873 3.08806
head 17.3839 -0.351612 3.39645
rclavicle -5.36719e-015 5.56597e-015
rhumerus -31.3426 -4.4273 -82.0296
rradius 34.9939
rwrist -11.2406
rhand -22.8602 13.7595
rfingers 7.12502
rthumb 3.57812 -16.1903
lclavicle -5.36719e-015 5.56597e-015
lhumerus -32.28 9.07822 83.6603
lradius 27.6136
lwrist 2.37612
lhand -17.9992 22.1159
lfingers 7.12502
lthumb 8.27108 51.934
rfemur -13.5744 -3.00107 24.9052
rtibia 35.6213
rfoot -21.1921 4.18318
rtoes 12.5628
lfemur -12.1258 1.44122 -17.0951
ltibia 30.076
lfoot -13.5646 -17.9904
ltoes 25.5585
4005
root -0.88092 23.6746 -1.32297 874.296 -260.334 -208.146
lowerback 5.88201 -0.0762408 3.46804
upperback 2.44331 0.208394 2.90416
thorax -0.781002 0.146383 1.02713
lowerneck -11.4444 -2.35914 -9.62864
upperneck 42.1019 0.301854 2.93766
head 17.4791 -0.363699 3.35595
rclavicle -5.76476e-015 -3.81667e-014
rhumerus -31.3247 -4.37967 -81.8567
rradius 34.7505
rwrist -11.346
rhand -22.9775 13.6638
rfingers 7.12502
rthumb 3.46478 -16.2878
lclavicle -5.76476e-015 -3.81667e-014
lhumerus -32.4079 9.41094 83.6863
lradius 27.8088
lwrist 2.17352
lhand -17.6497 21.8463
lfingers 7.12502
lthumb 8.60838 51.6508
rfemur -13.0174 -3.2943 25.1818
rtibia 35.1903
rfoot -21.551 4.6336
rtoes 14.4121
lfemur -12.0977 1.20027 -16.7518
ltibia 30.5758
lfoot -14.2014 -17.9069
ltoes 24.8091
4006
root -0.860288 23.6496 -1.29912 874.087 -260.537 -208.193
lowerback 6.02722 -0.00777949 3.28782
upperback 2.4671 0.299968 2.98105
thorax -0.838162 0.191444 1.2011
lowerneck -11.5687 -2.40974 -9.61483
upperneck 42.223 0.350152 2.72507
head 17.5842 -0.369183 3.27193
rclavicle -8.74653e-015 -2.46493e-014
rhumerus -31.4038 -4.5324 -81.6176
rradius 34.6028
rwrist -11.2302
rhand -23.1986 13.3848
rfingers 7.12502
rthumb 3.25128 -16.5701
lclavicle -8.74653e-015 -2.46493e-014
lhumerus -32.5479 9.42199 83.9083
lradius 28.0889
lwrist 2.26695
lhand -17.6675 21.809
lfingers 7.12502
lthumb 8.59124 51.6142
rfemur -12.4972 -3.54829 25.1303
rtibia 34.7948
rfoot -21.6257 5.02088
rtoes 16.3432
lfemur -12.1415 1.09408 -16.7708
ltibia 31.165
lfoot -14.4018 -18.2491
ltoes 25.0669
4007
root -0.833603 23.6344 -1.27026 871.888 -260.408 -210.364
lowerback 6.01408 0.0657724 3.58983
upperback 2.49713 0.419991 3.1232
thorax -0.798156 0.255287 1.17094
lowerneck -11.6256 -2.35341 -9.54477
upperneck 42.1385 0.457485 2.62858
head 17.5396 -0.324052 3.22987
rclavicle -9.74045e-015 3.33958e-014
rhumerus -31.5055 -4.31488 -81.6011
rradius 34.6498
rwrist -11.5206
rhand -23.1018 12.9034
rfingers 7.12502
rthumb 3.34479 -17.0501
lclavicle -9.74045e-015 3.33958e-014
lhumerus -32.6324 9.02807 84.1463
lradius 28.3772
lwrist 2.75051
lhand -18.0965 22.0141
lfingers 7.12502
lthumb 8.17724 51.8359
rfemur -12.1038 -3.50923 25.6321
rtibia 34.4511
rfoot -21.5253 5.25643
rtoes 18.9618
lfemur -12.3147 1.01376 -16.2662
ltibia 31.8218
lfoot -14.2718 -18.3025
ltoes 26.1084
4008
root -0.80576 23.6264 -1.25145 869.413 -260.126 -212.923
lowerback 5.88177 0.107554 4.2603
upperback 2.50769 0.508194 3.16803
thorax -0.706842 0.305817 0.837534
lowerneck -11.6415 -2.26136 -9.31191
upperneck 42.0097 0.521341 2.60777
head 17.4563 -0.261392 3.18305
rclavicle 1.73937e-014 5.96354e-015
rhumerus -31.5873 -4.13164 -81.7567
rradius 34.6922
rwrist -11.9308
rhand -22.9237 12.728
rfingers 7.12502
rthumb 3.51677 -17.2227
lclavicle 1.73937e-014 5.96354e-015
lhumerus -32.7291 8.85777 84.0857
lradius 28.628
lwrist 3.0185
lhand -18.2332 22.2988
lfingers 7.12502
lthumb 8.04529 52.1257
rfemur -11.8266 -3.55048 26.1761
rtibia 34.1298
rfoot -22.0521 5.35922
rtoes 16.3728
lfemur -12.6111 0.735634 -15.6259
ltibia 32.6042
lfoot -14.4269 -17.7019
ltoes 25.3526
4009
root -0.782514 23.6243 -1.23998 869.811 -260.284 -212.726
lowerback 5.65559 0.188435 4.38
upperback 2.42537 0.6035 3.02724
thorax -0.661196 0.352173 0.620627
lowerneck -11.6386 -2.28868 -9.04676
upperneck 41.9816 0.446401 2.4955
head 17.4426 -0.262101 3.06982
rclavicle -1.6201e-014 2.94201e-014
rhumerus -31.5797 -4.5707 -81.7104
rradius 34.282
rwrist -11.9212
rhand -22.9193 12.9101
rfingers 7.12502
rthumb 3.521 -17.0405
lclavicle -1.6201e-014 2.94201e-014
lhumerus -32.8784 9.06633 83.9
lradius 28.8258
lwrist 2.53357
lhand -17.6883 22.1336
lfingers 7.12502
lthumb 8.57119 51.9396
rfemur -11.7317 -3.78509 25.9929
rtibia 33.815
rfoot -22.6042 5.93784
rtoes 14.1103
lfemur -13.194 0.332303 -15.7088
ltibia 33.5424
lfoot -14.459 -17.4717
ltoes 25.6939
